<svg width="133" height="133" viewBox="0 0 133 133" fill="none" xmlns="http://www.w3.org/2000/svg">
<path d="M97.7649 85.4521C89.4573 90.2485 86.6109 100.871 91.4073 109.179C96.2037 117.487 106.827 120.333 115.134 115.537C123.442 110.74 126.288 100.117 121.492 91.8097C116.696 83.502 106.073 80.6556 97.7649 85.4521Z" stroke="#4D9ACE" stroke-width="9"/>
<path d="M75.681 46.8974L97.7649 85.4525" stroke="#4D9ACE" stroke-width="9" stroke-miterlimit="10"/>
<path d="M74.9366 16.967C66.6289 12.1706 56.0059 15.017 51.2095 23.3246C46.4131 31.6323 49.2595 42.2552 57.5672 47.0517C65.8748 51.8481 76.4978 49.0017 81.2942 40.694C86.0906 32.3864 83.2442 21.7634 74.9366 16.967Z" stroke="#4D9ACE" stroke-width="9"/>
<path d="M35.2351 85.452C26.9274 80.6556 16.3045 83.502 11.508 91.8097C6.71161 100.117 9.55802 110.74 17.8657 115.537C26.1733 120.333 36.7963 117.487 41.5927 109.179C46.3891 100.871 43.5427 90.2485 35.2351 85.452Z" stroke="#4D9ACE" stroke-width="9"/>
<path d="M57.5672 47.0512L35.2351 85.4525" stroke="#4D9ACE" stroke-width="9" stroke-miterlimit="10"/>
</svg>
