<svg width="137" height="136" viewBox="0 0 137 136" fill="none" xmlns="http://www.w3.org/2000/svg">
<path d="M35.6275 12.2807C27.5268 7.63783 17.1684 10.3931 12.4914 18.4347C7.81444 26.4763 10.59 36.7591 18.6907 41.402C26.7915 46.0448 37.1499 43.2895 41.8268 35.2479C46.5038 27.2063 43.7283 16.9235 35.6275 12.2807Z" stroke="#D15245" stroke-width="9"/>
<path d="M35.6275 94.4785C27.5268 89.8356 17.1684 92.5909 12.4914 100.633C7.81444 108.674 10.59 118.957 18.6907 123.6C26.7915 128.243 37.1499 125.487 41.8268 117.446C46.5038 109.404 43.7283 99.1213 35.6275 94.4785Z" stroke="#D15245" stroke-width="9"/>
<path d="M27.0688 43.6545L27.1403 92.2259" stroke="#D15245" stroke-width="9" stroke-miterlimit="10"/>
<path d="M118.43 94.4785C110.329 89.8356 99.9706 92.5909 95.2936 100.633C90.6167 108.674 93.3922 118.957 101.493 123.6C109.594 128.243 119.952 125.487 124.629 117.446C129.306 109.404 126.53 99.1213 118.43 94.4785Z" stroke="#D15245" stroke-width="9"/>
<path d="M44.0959 109.129L93.0245 109.058" stroke="#D15245" stroke-width="9" stroke-miterlimit="10"/>
<path d="M101.493 12.2807C93.3922 16.9235 90.6166 27.2063 95.2936 35.2479C99.9706 43.2895 110.329 46.0448 118.43 41.402C126.53 36.7591 129.306 26.4763 124.629 18.4347C119.952 10.3931 109.594 7.63784 101.493 12.2807Z" stroke="#D15245" stroke-width="9"/>
<path d="M44.0959 26.8264L93.0245 26.8226" stroke="#D15245" stroke-width="9" stroke-miterlimit="10"/>
<path d="M109.946 92.2259L109.943 43.6545" stroke="#D15245" stroke-width="9" stroke-miterlimit="10"/>
<path d="M39.1316 38.7338L97.9701 97.1653" stroke="#D15245" stroke-width="9" stroke-miterlimit="10"/>
</svg>
