<svg width="110" height="104" viewBox="0 0 110 104" fill="none" xmlns="http://www.w3.org/2000/svg">
<g clip-path="url(#clip0_1_1054)">
<path d="M24.7644 52H4.60733C2.2218 52 0.287956 53.9294 0.287956 56.3094V99.4033C0.287956 101.783 2.2218 103.713 4.60733 103.713H24.7644C27.1499 103.713 29.0838 101.783 29.0838 99.4033V56.3094C29.0838 53.9294 27.1499 52 24.7644 52Z" fill="#2C9883"/>
<path d="M65.0785 0.287292H44.9215C42.5359 0.287292 40.6021 2.21667 40.6021 4.59668V99.4033C40.6021 101.783 42.5359 103.713 44.9215 103.713H65.0785C67.4641 103.713 69.3979 101.783 69.3979 99.4033V4.59668C69.3979 2.21667 67.4641 0.287292 65.0785 0.287292Z" fill="#2C9883"/>
<path d="M105.393 29.0166H85.2356C82.8501 29.0166 80.9162 30.946 80.9162 33.326V99.4033C80.9162 101.783 82.8501 103.713 85.2356 103.713H105.393C107.778 103.713 109.712 101.783 109.712 99.4033V33.326C109.712 30.946 107.778 29.0166 105.393 29.0166Z" fill="#2C9883"/>
</g>
<defs>
<clipPath id="clip0_1_1054">
<rect width="110" height="104" fill="white"/>
</clipPath>
</defs>
</svg>
